#N canvas 251 416 546 215 12;
#X text 25 143 See also:;
#X obj 25 107 bela/analog-in~ 0 1 2 3 4 5 6 7;
#X obj 29 12 analog-in~;
#X text 22 49 Channel numbers start from 0 and match the numbering on the board itself. There are 8 analog inputs available \, so the maximum number is 7;
#X text 120 12 Abstraction to read analog inputs from Bela. Arguments are the analog channels to read from.;
#X obj 26 165 bela/audio-in~;
