#N canvas 491 45 787 909 12;
#X obj 39 537 f;
#X obj 39 281 t l l b;
#X obj 39 306 list length;
#X obj 39 491 until;
#X obj 83 536 + 1;
#X msg 153 594 get \$1;
#X msg 57 512 0;
#X obj 153 652 route float;
#X msg 210 596 delete 0 -1;
#X obj 153 627 list store dummy;
#X obj 40 742 pack f f f f f f;
#X obj 39 562 t f f f f;
#X obj 134 269 s \$1;
#X obj 41 846 s \$1;
#X obj 145 685 + \$2;
#X obj 159 25 loadbang;
#X obj 41 24 savestate;
#X obj 40 139 spigot;
#X obj 41 62 t b b;
#X msg 114 23 bang;
#X obj 134 91 + 1;
#X obj 99 91 f;
#X obj 99 114 == 0;
#X obj 39 256 pdcontrol;
#X text 100 143 comment;
#X text 37 171 A single bang on init or load;
#X obj 2 120 bng 19 250 50 0 empty empty empty 0 -10 0 12 #fcfcfc #000000 #000000;
#X msg 39 230 args 1;
#X obj 2 94 inlet;
#X obj 39 635 + 10;
#X text 139 199 First we clear all non-iolets;
#X obj 39 195 t b b;
#X obj 39 607 * 60;
#X obj 282 415 s \$1;
#X text 88 777 Recreate all objects and connections;
#X obj 328 549 until;
#X obj 356 585 f;
#X obj 400 584 + 1;
#X msg 374 560 0;
#X obj 327 516 t f b;
#X obj 357 637 + 10;
#X obj 357 609 * 60;
#X text 344 660 Create all iolets. TODO: only create the ones that have been added;
#X obj 357 721 s \$1;
#X obj 166 716 +;
#X obj 39 465 t f b f;
#X obj 95 635 + 210;
#X obj 95 611 * 21;
#X msg 134 225 vis 1 \, editmode 1 \, mouse 1 200 0 0 \, mouseup 1500 799 0 \, cut \, vis 0;
#X obj 38 359 > 20;
#X obj 38 408 route 0 1;
#X obj 38 383 pack f f;
#X obj 282 446 print bela/\$1 Too many channels;
#X obj 39 437 t f f;
#X msg 293 472 0;
#X text 323 464 also delete all iolets;
#X obj 206 342 f;
#X obj 38 331 t f f f;
#X obj 257 343 * 60;
#X msg 41 800 obj \$1 \$2 bela-private-single-audio-in~ \$3 \, connect \$6 0 \$5 0 \, vis 0;
#X msg 357 695 vis 1 \, editmode 1 \, obj \$1 810 outlet~ \, vis 0;
#X text 295 321 Here we clear iolets. TODO: selectively clear only the ones (if any) that are above the current length so not to unnecessarily disconnect pre-existing external connections.;
#X msg 207 314 0;
#X text 240 308 <<< fix this to select a smaller range;
#X msg 282 371 vis 1 \, editmode 1 \, mouse \$1 800 0 0 \, mouseup 1500 999 0 \, cut \, vis 0;
#X connect 0 0 4 0;
#X connect 0 0 11 0;
#X connect 1 0 2 0;
#X connect 1 1 9 1;
#X connect 1 2 8 0;
#X connect 2 0 57 0;
#X connect 3 0 0 0;
#X connect 4 0 0 1;
#X connect 5 0 9 0;
#X connect 6 0 0 1;
#X connect 7 0 10 2;
#X connect 8 0 9 0;
#X connect 9 0 7 0;
#X connect 10 0 59 0;
#X connect 11 0 32 0;
#X connect 11 1 47 0;
#X connect 11 2 5 0;
#X connect 11 3 14 0;
#X connect 14 0 10 4;
#X connect 14 0 44 0;
#X connect 15 0 18 0;
#X connect 16 0 18 0;
#X connect 16 1 19 0;
#X connect 17 0 31 0;
#X connect 18 0 17 0;
#X connect 18 1 21 0;
#X connect 19 0 16 0;
#X connect 20 0 21 1;
#X connect 21 0 22 0;
#X connect 21 0 20 0;
#X connect 22 0 17 1;
#X connect 23 0 1 0;
#X connect 26 0 31 0;
#X connect 27 0 23 0;
#X connect 28 0 26 0;
#X connect 29 0 10 0;
#X connect 31 0 27 0;
#X connect 31 1 48 0;
#X connect 32 0 29 0;
#X connect 35 0 36 0;
#X connect 36 0 37 0;
#X connect 36 0 41 0;
#X connect 37 0 36 1;
#X connect 38 0 36 1;
#X connect 39 0 35 0;
#X connect 39 1 38 0;
#X connect 40 0 60 0;
#X connect 41 0 40 0;
#X connect 44 0 10 5;
#X connect 45 0 3 0;
#X connect 45 1 6 0;
#X connect 45 2 44 1;
#X connect 46 0 10 1;
#X connect 47 0 46 0;
#X connect 48 0 12 0;
#X connect 49 0 51 0;
#X connect 50 0 53 0;
#X connect 50 1 52 0;
#X connect 50 1 54 0;
#X connect 51 0 50 0;
#X connect 53 0 45 0;
#X connect 53 1 39 0;
#X connect 54 0 56 0;
#X connect 56 0 58 0;
#X connect 57 0 49 0;
#X connect 57 1 51 1;
#X connect 57 2 62 0;
#X connect 58 0 64 0;
#X connect 59 0 13 0;
#X connect 60 0 43 0;
#X connect 62 0 56 0;
#X connect 64 0 33 0;
