#N canvas 237 269 450 300 12;
#X obj 13 14 r bela_setup;
#X obj 13 110 adc~ -1;
#X obj 13 134 outlet~;
#X msg 13 86 set \$1;
#X obj 13 62 bela-private-compute-channel \$1 audioIn~;
#X obj 13 38 route audioInChannels;
#X connect 0 0 5 0;
#X connect 1 0 2 0;
#X connect 3 0 1 0;
#X connect 4 0 3 0;
#X connect 5 0 4 0;
