#N canvas 268 275 441 139 12;
#X obj 73 6 r bela_setup;
#X msg 73 78 set \$1;
#X obj 73 102 dac~ -1;
#X obj 18 9 inlet~;
#X obj 73 54 bela-private-compute-channel \$1 audioOut~;
#X obj 73 30 route audioOutChannels;
#X connect 0 0 5 0;
#X connect 1 0 2 0;
#X connect 3 0 2 0;
#X connect 4 0 1 0;
#X connect 5 0 4 0;
