#N canvas 725 32 787 909 12;
#X obj 39 537 f;
#X obj 39 281 t l l b;
#X obj 39 306 list length;
#X obj 39 491 until;
#X obj 83 536 + 1;
#X msg 153 594 get \$1;
#X msg 57 512 0;
#X obj 153 652 route float;
#X msg 210 596 delete 0 -1;
#X obj 153 627 list store dummy;
#X obj 39 562 t f f f f;
#X obj 254 329 s \$1;
#X obj 41 846 s \$1;
#X obj 403 476 + \$2;
#X obj 159 25 loadbang;
#X obj 41 24 savestate;
#X obj 40 139 spigot;
#X obj 41 62 t b b;
#X msg 114 23 bang;
#X obj 134 91 + 1;
#X obj 99 91 f;
#X obj 99 114 == 0;
#X obj 39 256 pdcontrol;
#X text 37 171 A single bang on init or load;
#X obj 2 120 bng 19 250 50 0 empty empty empty 0 -10 0 12 #fcfcfc #000000 #000000;
#X msg 39 230 args 1;
#X obj 39 635 + 10;
#X obj 39 195 t b b;
#X obj 39 607 * 60;
#X obj 95 635 + 210;
#X obj 95 611 * 21;
#X obj 38 359 > 20;
#X obj 38 408 route 0 1;
#X obj 38 383 pack f f;
#X obj 38 331 t f f b;
#X text 255 92 \$1: the name of the patch where to create the objects;
#X text 259 75 Args:;
#X text 255 112 \$2: the number of objects in the parent patch. If wrong \, the created connections will be wrong.;
#X obj 112 692 symbol \$3;
#X obj 39 465 t f b f b;
#X text 255 142 \$3: objarg;
#X text 255 162 \$4: objnoarg;
#X text 254 23 We generate a dynamic number of connected objarg/objnoarg pairs. Arguments to the parent patch set the number of pairs and are passed to the respective objarg.;
#X text 20 437 Recreate all objargs \, objnoargs and connections;
#X obj 435 529 + 1;
#X obj 162 722 symbol \$4;
#X obj 40 762 pack f f s f s f f;
#X obj 403 447 * 2;
#X text 255 182 \$5: topbottom or bottomtop to indicate the connection order;
#X obj 403 505 t f f;
#X obj 403 553 pack f f;
#X obj 403 582 list prepend \$5;
#X obj 403 629 route topbottom bottomtop;
#X obj 489 655 swap;
#X obj 428 711 unpack f f;
#X text 259 259 First we clear all objects;
#X obj 403 606 list trim;
#X text 398 422 compute connections;
#X obj 203 377 print Error \$1;
#X text 201 359 In case of error \, also delete all objects to avoid confusion;
#X obj 185 331 bang;
#X obj 490 679 pack f f;
#X msg 254 285 vis 1 \, editmode 1 \, mouse 1 200 0 0 \, mouseup 1500 1000 0 \, cut \, vis 0;
#X msg 41 800 vis 1 \, obj \$1 \$2 \$3 \$4 \, obj \$1 810 \$5 \, connect \$6 0 \$7 0 \, vis 0;
#X text 169 217 TODO: clearing is disabled because running embedded doesn't allow mouse/mouseup commands. So we have to assume that the parent patch is always saved without stale objects;
#X connect 0 0 4 0;
#X connect 0 0 10 0;
#X connect 1 0 2 0;
#X connect 1 1 9 1;
#X connect 1 2 8 0;
#X connect 2 0 34 0;
#X connect 3 0 0 0;
#X connect 4 0 0 1;
#X connect 5 0 9 0;
#X connect 6 0 0 1;
#X connect 7 0 46 3;
#X connect 8 0 9 0;
#X connect 9 0 7 0;
#X connect 10 0 28 0;
#X connect 10 1 30 0;
#X connect 10 2 5 0;
#X connect 10 3 47 0;
#X connect 13 0 49 0;
#X connect 15 0 17 0;
#X connect 15 1 18 0;
#X connect 16 0 27 0;
#X connect 17 0 16 0;
#X connect 17 1 20 0;
#X connect 18 0 15 0;
#X connect 19 0 20 1;
#X connect 20 0 21 0;
#X connect 20 0 19 0;
#X connect 21 0 16 1;
#X connect 22 0 1 0;
#X connect 24 0 27 0;
#X connect 25 0 22 0;
#X connect 26 0 46 0;
#X connect 27 0 25 0;
#X connect 28 0 26 0;
#X connect 29 0 46 1;
#X connect 30 0 29 0;
#X connect 31 0 33 0;
#X connect 32 0 39 0;
#X connect 32 1 60 0;
#X connect 33 0 32 0;
#X connect 34 0 31 0;
#X connect 34 1 33 1;
#X connect 38 0 46 2;
#X connect 39 0 3 0;
#X connect 39 1 6 0;
#X connect 39 3 38 0;
#X connect 39 3 45 0;
#X connect 44 0 50 1;
#X connect 45 0 46 4;
#X connect 46 0 63 0;
#X connect 47 0 13 0;
#X connect 49 0 50 0;
#X connect 49 1 44 0;
#X connect 50 0 51 0;
#X connect 51 0 56 0;
#X connect 52 0 54 0;
#X connect 52 1 53 0;
#X connect 53 0 61 0;
#X connect 53 1 61 1;
#X connect 54 0 46 5;
#X connect 54 1 46 6;
#X connect 56 0 52 0;
#X connect 60 0 58 0;
#X connect 60 0 62 0;
#X connect 61 0 54 0;
#X connect 62 0 11 0;
#X connect 63 0 12 0;
