#N canvas 268 275 832 221 12;
#X obj 73 6 r bela_setup;
#X msg 73 158 set \$1;
#X obj 73 182 dac~ -1;
#X obj 18 9 inlet~;
#X obj 73 54 bela-private-compute-channel \$1 audioOut~;
#X obj 73 30 route audioOutChannels;
#X obj 378 16 loadbang;
#X obj 378 41 f \$1;
#X obj 378 67 + 1;
#X obj 378 123 spigot 1;
#X msg 431 98 0;
#X text 418 39 Default channels for getting audio on the host \, where there's no bela_setup message;
#X connect 0 0 5 0;
#X connect 1 0 2 0;
#X connect 3 0 2 0;
#X connect 4 0 10 0;
#X connect 4 0 1 0;
#X connect 5 0 4 0;
#X connect 6 0 7 0;
#X connect 7 0 8 0;
#X connect 8 0 9 0;
#X connect 9 0 1 0;
#X connect 10 0 9 1;
