#N canvas 237 269 825 236 12;
#X obj 13 14 r bela_setup;
#X obj 13 190 adc~ -1;
#X obj 13 214 outlet~;
#X msg 13 166 set \$1;
#X obj 13 62 bela-private-compute-channel \$1 audioIn~;
#X obj 13 38 route audioInChannels;
#X obj 378 16 loadbang;
#X obj 378 41 f \$1;
#X obj 378 67 + 1;
#X obj 378 123 spigot 1;
#X msg 431 98 0;
#X text 418 39 Default channels for getting audio on the host \, where there's no bela_setup message;
#X connect 0 0 5 0;
#X connect 1 0 2 0;
#X connect 3 0 1 0;
#X connect 4 0 3 0;
#X connect 4 0 10 0;
#X connect 5 0 4 0;
#X connect 6 0 7 0;
#X connect 7 0 8 0;
#X connect 8 0 9 0;
#X connect 9 0 3 0;
#X connect 10 0 9 1;
