#N canvas 419 168 674 558 12;
#X obj 62 30 inlet;
#X obj 182 177 + \$1;
#X obj 62 83 unpack f f;
#X obj 164 205 f;
#X obj 62 167 select 0 1;
#X obj 62 223 pack f f;
#X obj 62 111 t f f;
#X obj 62 195 \$1;
#X obj 62 139 > \$1;
#X obj 164 233 outlet;
#X obj 62 302 print bela/\$2;
#X text 62 57 [numChannels firstChannel(;
#X obj 219 233 print bela/\$2: \$1 as;
#X msg 62 264 requested channel \$1 with only \$2 available channels: disabled;
#X obj 336 56 pdcontrol;
#X obj 336 79 list length;
#X obj 336 10 loadbang;
#X msg 336 34 args 1;
#X obj 383 168 print bela/\$2;
#X obj 336 105 route 1;
#X msg 383 137 needs exactly one argument but got \$1;
#X connect 0 0 2 0;
#X connect 1 0 3 1;
#X connect 2 0 6 0;
#X connect 2 1 1 0;
#X connect 3 0 9 0;
#X connect 4 0 7 0;
#X connect 4 1 3 0;
#X connect 5 0 13 0;
#X connect 6 0 8 0;
#X connect 6 1 5 1;
#X connect 7 0 5 0;
#X connect 8 0 4 0;
#X connect 13 0 10 0;
#X connect 14 0 15 0;
#X connect 15 0 19 0;
#X connect 16 0 17 0;
#X connect 17 0 14 0;
#X connect 19 1 20 0;
#X connect 20 0 18 0;
