#N canvas 681 471 547 469 12;
#X text 15 343 See also:;
#X text 13 44 Channel numbers match the D labels on the board and are comprised between 0 and 15;
#X text 163 402 input at signal rate;
#X text 167 436 output at message rate;
#X obj 15 314 bela/digital-out~ 6 7;
#X text 163 372 input at message rate;
#X obj 13 161 phasor~ 100;
#X text 11 142 Generate a PWM signal;
#X obj 14 237 +~;
#X obj 32 214 -~ 0.5;
#X text 98 158 100 Hz carrier;
#X text 15 79 This is the signal-rate version. The signal sent into the object will be thresholded at 0.5 and written to the corresponding digital pin at audio rate.;
#X text 26 292 threshold: 0.5;
#X text 26 282 internal;
#X text 120 189 Modulation;
#X obj 32 190 phasor~ 0.5;
#X obj 159 258 *~ 0.5;
#X obj 159 282 +~ 0.5;
#X obj 159 234 osc~ 100;
#X text 212 258 one-bit dac;
#X obj 17 17 digital-out~;
#X text 109 13 Abstraction to write digital channels on Bela. Arguments are the digital channels to write to.;
#X obj 14 374 bela/digital-in;
#X obj 14 404 bela/digital-in~;
#X obj 13 436 bela/digital-out;
#X connect 6 0 8 0;
#X connect 8 0 4 0;
#X connect 9 0 8 1;
#X connect 15 0 9 0;
#X connect 16 0 17 0;
#X connect 17 0 4 1;
#X connect 18 0 16 0;
