#N canvas 92 124 552 394 12;
#X text 15 253 See also:;
#X text 12 48 Channel numbers match the D labels on the board and are comprised between 0 and 15;
#X text 143 282 input at signal rate;
#X obj 13 114 bela/digital-in 0 1;
#X text 146 322 output at message rate;
#X text 151 357 output at signal rate;
#X text 11 81 This is the message-rate version. It will send a message no the corresponding outlet every time the pin changes value.;
#X obj 13 155 print digital in 0;
#X obj 144 218 print digital in 1 debounced;
#N canvas 121 153 619 227 debounce 0;
#X obj 106 79 delay 10;
#X msg 107 103 1;
#X msg 75 102 0;
#X obj 36 130 spigot 1;
#X obj 36 104 f;
#X obj 36 153 change, f 7;
#X obj 23 45 t b f;
#X obj 23 19 inlet;
#X obj 36 177 outlet;
#X text 115 32 After receiving a value \, wait 10 ms before letting anything else pass through.;
#X connect 0 0 1 0;
#X connect 0 0 4 0;
#X connect 1 0 3 1;
#X connect 2 0 3 1;
#X connect 3 0 5 0;
#X connect 4 0 3 0;
#X connect 5 0 8 0;
#X connect 6 0 0 0;
#X connect 6 0 2 0;
#X connect 6 1 4 0;
#X connect 7 0 6 0;
#X restore 144 183 pd debounce;
#X obj 23 16 digital-in;
#X text 111 11 Abstraction to read digital channels on Bela. Arguments are the digital channels to write to.;
#X obj 14 284 bela/digital-in~;
#X obj 12 322 bela/digital-out;
#X obj 13 356 bela/digital-out~;
#X connect 3 0 7 0;
#X connect 3 1 9 0;
#X connect 9 0 8 0;
