#N canvas 694 98 394 204 12;
#X obj 108 119 send bela_setDigital;
#X msg 76 145 set \$1;
#X obj 76 35 route digitalChannels;
#X obj 76 8 r bela_setup;
#X msg 108 93 out \$1 ~;
#X obj 76 61 bela-private-compute-channel \$1 digitalOut~;
#X obj 76 169 dac~ -1;
#X obj 10 9 inlet~;
#X connect 1 0 6 0;
#X connect 2 0 5 0;
#X connect 3 0 2 0;
#X connect 4 0 0 0;
#X connect 5 0 1 0;
#X connect 5 0 4 0;
#X connect 7 0 6 0;
