#N canvas 68 389 553 494 12;
#X text 15 343 See also:;
#X text 166 412 output at message rate;
#X text 174 443 output at signal rate;
#X obj 14 154 bela/digital-in~ 2 3;
#X text 163 372 input at message rate;
#X text 15 89 This is the signal-rate version. It will output a signal containing only 0 and 1 \, representing the state of the corresponding pin.;
#X obj 14 215 lop~ 100;
#X obj 14 289 snapshot~;
#X obj 33 238 loadbang;
#X obj 33 262 metro 100;
#X obj 14 313 print smoothed;
#X text 15 185 Detect the average;
#X text 15 195 value of a PWM input;
#X obj 219 305 bela/audio-out~ 0;
#X text 224 217 Receive a 1-bit signal \,;
#X text 223 231 remove some high-frequency;
#X obj 219 277 lop~ 500;
#X text 223 243 content and listen to it;
#X text 12 48 Channel numbers match the D labels on the board and are comprised between 0 and 15;
#X text 117 11 Abstraction to read digital channels on Bela. Arguments are the digital channels to write to.;
#X obj 23 16 digital-in~;
#X obj 14 374 bela/digital-in;
#X obj 12 412 bela/digital-out;
#X obj 13 446 bela/digital-out~;
#X connect 3 0 6 0;
#X connect 3 1 16 0;
#X connect 6 0 7 0;
#X connect 7 0 10 0;
#X connect 8 0 9 0;
#X connect 9 0 7 0;
#X connect 16 0 13 0;
