#N canvas 672 46 553 421 12;
#X text 15 283 See also:;
#X text 17 35 Channel numbers match the D labels on the board and are comprised between 0 and 15;
#X text 163 352 input at signal rate;
#X text 174 383 output at signal rate;
#X text 163 322 input at message rate;
#X text 15 69 This is the message-rate version. It will change the value of the output pin every time it receives a 0 or 1 message in the corresponding inlet.;
#X obj 13 254 bela/digital-out 4 5;
#X obj 12 129 loadbang;
#X obj 12 153 metro 500;
#X obj 12 177 tgl 19 0 empty empty empty 0 -10 0 12 #fcfcfc #000000 #000000 0 1;
#X text 17 203 toggle the pin;
#X text 17 213 every 500 ms;
#X obj 150 160 env~;
#X obj 150 184 > 80;
#X obj 150 208 tgl 19 0 empty empty empty 0 -10 0 12 #fcfcfc #000000 #000000 0 1;
#X obj 150 132 bela/audio-in~ 0;
#X text 187 172 Use an LED as clipping indicator;
#X obj 13 5 digital-out;
#X text 105 2 Abstraction to write digital channels on Bela. Arguments are the digital channels to write to.;
#X obj 14 324 bela/digital-in;
#X obj 14 354 bela/digital-in~;
#X obj 13 386 bela/digital-out~;
#X connect 7 0 8 0;
#X connect 8 0 9 0;
#X connect 9 0 6 0;
#X connect 12 0 13 0;
#X connect 13 0 14 0;
#X connect 14 0 6 1;
#X connect 15 0 12 0;
