#N canvas 449 98 412 233 12;
#X obj 86 112 send bela_setDigital;
#X obj 86 35 route digitalChannels;
#X obj 86 10 r bela_setup;
#X obj 86 60 bela-private-compute-channel \$1 digitalOut;
#X msg 86 86 out \$1;
#X obj 9 10 inlet;
#X obj 8 191 send bela_digitalOut;
#X obj 8 149 pack f f;
#X obj 8 81 t b f;
#X obj 8 118 \$1;
#X connect 1 0 3 0;
#X connect 2 0 1 0;
#X connect 3 0 4 0;
#X connect 4 0 0 0;
#X connect 5 0 8 0;
#X connect 7 0 6 0;
#X connect 8 0 9 0;
#X connect 8 1 7 1;
#X connect 9 0 7 0;
