#N canvas 449 98 346 232 12;
#X obj 36 112 send bela_setDigital;
#X msg 36 86 in \$1;
#X obj 36 158 receive bela_digitalIn;
#X obj 36 182 route \$1;
#X obj 36 209 outlet;
#X obj 36 35 route digitalChannels;
#X obj 36 10 r bela_setup;
#X obj 36 60 bela-private-compute-channel \$1 digitalIn;
#X connect 1 0 0 0;
#X connect 2 0 3 0;
#X connect 3 0 4 0;
#X connect 5 0 7 0;
#X connect 6 0 5 0;
#X connect 7 0 1 0;
