#N canvas 67 75 1241 755 10;
#X obj 862 66 loadbang;
#X obj 862 286 soundfiler;
#X msg 862 263 read -resize \$1 \$2-buffer;
#X obj 862 472 array define \$0-buffer;
#X obj 862 239 pack s \$0;
#X msg 862 88 args;
#X obj 862 111 pdcontrol;
#X obj 862 346 s \$0-sf-length;
#X obj 972 361 s \$0-sf-samplerate;
#X msg 972 341 \$1;
#X obj 429 135 r \$0-sf-length;
#X obj 444 162 r \$0-sf-samplerate;
#X obj 185 523 line~;
#X obj 444 187 / 1000;
#X obj 429 215 /;
#X obj 200 400 r \$0-sf-length;
#X obj 185 423 f;
#X obj 185 469 pack;
#X msg 185 499 0 \, \$1 \$2;
#X obj 185 559 tabread4~ \$0-buffer;
#X obj 185 256 bng 18 250 50 0 empty empty empty 0 -9 0 10 #fcfcfc #000000 #000000;
#X obj 185 46 inlet;
#X obj 260 127 s \$0-playback-speed;
#X obj 481 252 r \$0-playback-speed;
#X obj 481 275 t b f;
#X obj 481 301 f;
#X obj 185 582 outlet~;
#X obj 185 69 route bang stop speed open;
#X obj 223 94 s \$0-stop;
#X obj 298 153 s \$0-open;
#X obj 454 550 delay;
#X obj 105 469 r \$0-stop;
#X msg 105 492 stop;
#X obj 481 324 / 1, f 5;
#X obj 369 538 r \$0-stop;
#X msg 369 561 stop;
#X obj 454 575 outlet;
#X text 474 215 convert to ms;
#X text 529 326 divide ms playtime by playback speed;
#X text 978 102 load soundfile into local buffer;
#X obj 790 175 r \$0-open;
#X obj 790 198 symbol;
#X text 863 375 samples;
#X text 969 385 sample rate;
#X obj 919 157 s \$0-playback-speed;
#X obj 862 134 unpack s f;
#X connect 0 0 5 0;
#X connect 1 0 7 0;
#X connect 1 1 9 0;
#X connect 2 0 1 0;
#X connect 4 0 2 0;
#X connect 5 0 6 0;
#X connect 6 0 45 0;
#X connect 9 0 8 0;
#X connect 10 0 14 0;
#X connect 11 0 13 0;
#X connect 12 0 19 0;
#X connect 13 0 14 1;
#X connect 14 0 25 0;
#X connect 15 0 16 1;
#X connect 16 0 17 0;
#X connect 17 0 18 0;
#X connect 18 0 12 0;
#X connect 19 0 26 0;
#X connect 20 0 16 0;
#X connect 20 0 30 0;
#X connect 21 0 27 0;
#X connect 23 0 24 0;
#X connect 24 0 25 0;
#X connect 24 1 33 1;
#X connect 25 0 33 0;
#X connect 27 0 20 0;
#X connect 27 1 28 0;
#X connect 27 2 22 0;
#X connect 27 3 29 0;
#X connect 30 0 36 0;
#X connect 31 0 32 0;
#X connect 32 0 12 0;
#X connect 33 0 17 1;
#X connect 33 0 30 1;
#X connect 34 0 35 0;
#X connect 35 0 30 0;
#X connect 40 0 41 0;
#X connect 41 0 4 0;
#X connect 45 0 4 0;
#X connect 45 1 44 0;
#X coords 0 755 1 754 201 140 0;
