#N canvas 691 227 755 398 12;
#X obj 14 299 *~ 0.2;
#X obj 221 264 bng 18 250 50 0 empty empty empty 0 -9 0 10 #fcfcfc #000000 #000000;
#X text 246 266 bang when the file reaches the end;
#X obj 14 37 bng 18 250 50 0 empty empty empty 0 -9 0 10 #fcfcfc #000000 #000000;
#X text 38 38 bang to start playback;
#X text 130 155 set playback speed;
#X msg 41 75 stop;
#X text 77 74 stop playback;
#X msg 73 191 open number1.wav;
#X obj 68 109 hsl 153 18 0.5 2 0 0 empty empty empty -2 -9 0 10 #fcfcfc #000000 #000000 0 1;
#X msg 65 154 speed \$1;
#X floatatom 65 132 5 0 0 0 - - - 0;
#X text 265 220 arguments (optional): \$1: soundfile name \, \$2: playback-speed;
#X text 199 188 load soundfile;
#X obj 10 337 bela/audio-out~ 0 1;
#X obj 14 223 bela/play-audio-file~ number0.wav 1;
#X obj 15 6 play-audio-file~;
#X text 136 8 An abstraction to make it easier to play a file from RAM;
#X connect 0 0 14 0;
#X connect 0 0 14 1;
#X connect 3 0 15 0;
#X connect 6 0 15 0;
#X connect 8 0 15 0;
#X connect 9 0 11 0;
#X connect 10 0 15 0;
#X connect 11 0 10 0;
#X connect 15 0 0 0;
#X connect 15 1 1 0;
